<?xml version="1.0" encoding="UTF-8"?>
<svg xmlns="http://www.w3.org/2000/svg" xmlns:xlink="http://www.w3.org/1999/xlink" width="854" height="480" viewBox="0 0 854 480">
<defs>
<g>
<g id="glyph-0-0">
<path d="M 4.375 -1.875 C 4.375 -1.59375 4.324219 -1.328125 4.222656 -1.082031 C 4.121094 -0.835938 3.984375 -0.625 3.8125 -0.449219 C 3.613281 -0.253906 3.394531 -0.105469 3.15625 -0.0117188 C 2.914062 0.0820312 2.664062 0.128906 2.40625 0.128906 C 2.105469 0.128906 1.832031 0.0742188 1.585938 -0.0351562 C 1.34375 -0.148438 1.136719 -0.304688 0.964844 -0.507812 C 0.789062 -0.714844 0.65625 -0.964844 0.5625 -1.265625 C 0.464844 -1.5625 0.417969 -1.898438 0.417969 -2.269531 C 0.417969 -3.238281 0.707031 -4.050781 1.285156 -4.714844 C 1.859375 -5.382812 2.632812 -5.78125 3.601562 -5.914062 L 3.675781 -5.546875 L 3.308594 -5.480469 C 2.71875 -5.292969 2.265625 -4.996094 1.941406 -4.59375 C 1.621094 -4.191406 1.414062 -3.707031 1.316406 -3.132812 C 1.550781 -3.335938 1.78125 -3.480469 2.011719 -3.566406 C 2.238281 -3.648438 2.476562 -3.691406 2.730469 -3.691406 C 3.183594 -3.691406 3.570312 -3.515625 3.890625 -3.171875 C 4.214844 -2.824219 4.375 -2.390625 4.375 -1.875 M 3.492188 -1.765625 C 3.492188 -2.207031 3.390625 -2.558594 3.1875 -2.824219 C 2.984375 -3.089844 2.714844 -3.222656 2.375 -3.222656 C 2.171875 -3.222656 1.984375 -3.183594 1.808594 -3.109375 C 1.632812 -3.03125 1.464844 -2.90625 1.300781 -2.726562 C 1.300781 -2.695312 1.296875 -2.617188 1.289062 -2.5 C 1.285156 -2.382812 1.28125 -2.289062 1.28125 -2.222656 C 1.28125 -1.585938 1.386719 -1.089844 1.59375 -0.730469 C 1.800781 -0.371094 2.074219 -0.191406 2.414062 -0.191406 C 2.734375 -0.191406 2.996094 -0.332031 3.195312 -0.613281 C 3.390625 -0.894531 3.492188 -1.277344 3.492188 -1.765625 Z "/>
</g>
<g id="glyph-0-1">
<path d="M 4.410156 -0.367188 L 3.585938 -0.367188 L 3.585938 1.484375 L 2.804688 1.484375 L 2.804688 -0.367188 L 0.199219 -0.367188 L 0.199219 -0.992188 L 3.050781 -4.472656 L 3.585938 -4.472656 L 3.585938 -0.898438 L 4.410156 -0.898438 L 4.410156 -0.367188 M 2.804688 -0.898438 L 2.804688 -3.566406 L 0.601562 -0.898438 Z "/>
</g>
<g id="glyph-0-2">
<path d="M 4.511719 -0.8125 L 4.148438 -0.449219 L 2.679688 -1.925781 L 1.207031 -0.445312 L 0.847656 -0.808594 L 2.328125 -2.28125 L 0.847656 -3.75 L 1.210938 -4.109375 L 2.679688 -2.632812 L 4.152344 -4.113281 L 4.511719 -3.753906 L 3.03125 -2.28125 Z "/>
</g>
<g id="glyph-0-3">
<path d="M 3.292969 0 L 0.550781 0 L 0.550781 -0.289062 C 0.628906 -0.292969 0.757812 -0.304688 0.929688 -0.324219 C 1.101562 -0.339844 1.21875 -0.359375 1.285156 -0.378906 C 1.371094 -0.40625 1.433594 -0.449219 1.480469 -0.511719 C 1.523438 -0.570312 1.546875 -0.664062 1.546875 -0.785156 L 1.546875 -3.640625 L 0.53125 -3.640625 L 0.53125 -3.984375 L 0.757812 -3.984375 C 1.050781 -3.984375 1.3125 -4.039062 1.542969 -4.144531 C 1.777344 -4.253906 1.941406 -4.371094 2.042969 -4.496094 L 2.378906 -4.496094 C 2.371094 -4.320312 2.363281 -4.113281 2.355469 -3.878906 C 2.347656 -3.640625 2.34375 -3.429688 2.34375 -3.242188 L 2.34375 -0.828125 C 2.34375 -0.734375 2.363281 -0.648438 2.40625 -0.574219 C 2.449219 -0.5 2.507812 -0.445312 2.585938 -0.410156 C 2.660156 -0.382812 2.773438 -0.355469 2.933594 -0.328125 C 3.09375 -0.304688 3.214844 -0.292969 3.292969 -0.289062 Z "/>
</g>
</g>
</defs>
<g fill="rgb(51.372549%, 75.686275%, 40.392157%)" fill-opacity="1">
<use xlink:href="#glyph-0-0" x="30" y="27.641602"/>
<use xlink:href="#glyph-0-1" x="35" y="27.641602"/>
<use xlink:href="#glyph-0-2" x="40" y="27.641602"/>
<use xlink:href="#glyph-0-0" x="45" y="27.641602"/>
<use xlink:href="#glyph-0-1" x="50" y="27.641602"/>
<use xlink:href="#glyph-0-2" x="55" y="27.641602"/>
<use xlink:href="#glyph-0-3" x="60" y="27.641602"/>
<use xlink:href="#glyph-0-0" x="64" y="27.641602"/>
</g>
</svg>
